# xmcd
#
# Track frame offsets: 
#        157
#        23607
#        42807
#        59232
#        80082
#        99157
#        119282
#        128382
#        146857
#        164832
#
# Disc length: 2349 seconds
#
# Revision: 2
# Processed by: cddbd v1.5.1PL2 Copyright (c) Steve Scherf et al.
# Submitted via: ExactAudioCopy v0.95b3
#
DISCID=87092b0a
DTITLE=Fabio Concato - Blu
DYEAR=1996
DGENRE=Other
TTITLE0=Un Puntino
TTITLE1=O Bella Bionda
TTITLE2=Ciao Amore
TTITLE3=Bell' Italia
TTITLE4=Angiolina
TTITLE5=Un Fiore Una Stella
TTITLE6=Solo
TTITLE7=Invece Ciccia
TTITLE8=Solo Una Carezza
TTITLE9=E A Quanti Amori
EXTD=
EXTT0=
EXTT1=
EXTT2=
EXTT3=
EXTT4=
EXTT5=
EXTT6=
EXTT7=
EXTT8=
EXTT9=
PLAYORDER=
